<svg width="68.6" height="68.6" version="1.1" viewBox="0 0 18.1 18.1" xmlns="http://www.w3.org/2000/svg">
 <g transform="translate(-46.2 -62.7)">
  <path d="m55.3 62.7a9.07 9.07 0 0 0-9.07 9.08 9.07 9.07 0 0 0 9.07 9.07 9.07 9.07 0 0 0 9.07-9.07v-8e-3a9.07 9.07 0 0 0-9.08-9.06zm2e-3 3.6a5.47 5.47 0 0 1 5.48 5.47v5e-3a5.47 5.47 0 0 1-5.47 5.47 5.47 5.47 0 0 1-5.48-5.47 5.47 5.47 0 0 1 5.47-5.48z" style="fill:#2ad4ff"/>
  <path d="m55.3 62.7a9.07 9.07 0 0 0-0.072 4e-3v3.6a5.47 5.47 0 0 1 0.0744-3e-3 5.47 5.47 0 0 1 5.48 5.43h3.6a9.07 9.07 0 0 0-9.08-9.03z" style="fill:#000080"/>
 </g>
</svg>
